<svg width="595" height="173" viewBox="0 0 595 173" fill="none" xmlns="http://www.w3.org/2000/svg">
<rect width="595" height="31" fill="#D9D9D9"/>
<path d="M299 31H595V74H328.899L299 31Z" fill="#9EA4AE"/>
<path d="M534 105H595V173L534 105Z" fill="#9EA4AE"/>
<path d="M275 0H595V31H299.781L275 0Z" fill="#3D0094"/>
<path d="M323 31H595V105H373L323 31Z" fill="#3D0094"/>
<path d="M381.657 60H376.714L384.246 38.1818H390.19L397.712 60H392.768L387.303 43.1676H387.133L381.657 60ZM381.348 51.424H393.024V55.0249H381.348V51.424ZM401.555 38.1818L406.828 54.7585H407.031L412.315 38.1818H417.428L409.907 60H403.963L396.431 38.1818H401.555ZM420.915 60H415.972L423.504 38.1818H429.448L436.969 60H432.026L426.561 43.1676H426.391L420.915 60ZM420.606 51.424H432.282V55.0249H420.606V51.424ZM444.208 38.1818V60H439.596V38.1818H444.208ZM448.004 60V38.1818H452.617V56.1967H461.97V60H448.004ZM469.343 60H464.399L471.931 38.1818H477.876L485.397 60H480.454L474.989 43.1676H474.818L469.343 60ZM469.034 51.424H480.71V55.0249H469.034V51.424ZM488.023 60V38.1818H496.759C498.364 38.1818 499.703 38.4197 500.775 38.8956C501.848 39.3714 502.654 40.032 503.194 40.8771C503.733 41.7152 504.003 42.6811 504.003 43.7749C504.003 44.6271 503.833 45.3764 503.492 46.0227C503.151 46.6619 502.682 47.1875 502.086 47.5994C501.496 48.0043 500.822 48.2919 500.062 48.4624V48.6754C500.893 48.7109 501.67 48.9453 502.395 49.3786C503.126 49.8118 503.719 50.419 504.174 51.2003C504.628 51.9744 504.856 52.8977 504.856 53.9702C504.856 55.1278 504.568 56.1612 503.993 57.0703C503.425 57.9723 502.583 58.6861 501.468 59.2116C500.353 59.7372 498.979 60 497.345 60H488.023ZM492.636 56.2287H496.397C497.682 56.2287 498.62 55.9837 499.209 55.4936C499.799 54.9964 500.094 54.3359 500.094 53.5121C500.094 52.9084 499.948 52.3757 499.657 51.9141C499.366 51.4524 498.95 51.0902 498.41 50.8274C497.878 50.5646 497.242 50.4332 496.503 50.4332H492.636V56.2287ZM492.636 47.3118H496.056C496.688 47.3118 497.249 47.2017 497.739 46.9815C498.236 46.7543 498.627 46.4347 498.911 46.0227C499.202 45.6108 499.348 45.1172 499.348 44.5419C499.348 43.7536 499.067 43.1179 498.506 42.6349C497.952 42.152 497.164 41.9105 496.141 41.9105H492.636V47.3118ZM512.47 38.1818V60H507.857V38.1818H512.47ZM516.265 60V38.1818H520.878V56.1967H530.232V60H516.265ZM537.9 38.1818V60H533.287V38.1818H537.9ZM540.864 41.9851V38.1818H558.783V41.9851H552.104V60H547.544V41.9851H540.864ZM560.456 38.1818H565.623L570.598 47.5781H570.811L575.786 38.1818H580.953L572.995 52.2869V60H568.414V52.2869L560.456 38.1818Z" fill="white"/>
</svg>
