<svg width="595" height="173" viewBox="0 0 595 173" fill="none" xmlns="http://www.w3.org/2000/svg">
<rect width="595" height="31" fill="#D9D9D9"/>
<path d="M299 31H595V74H328.899L299 31Z" fill="#9EA4AE"/>
<path d="M534 105H595V173L534 105Z" fill="#9EA4AE"/>
<path d="M275 0H595V31H299.781L275 0Z" fill="#3D0094"/>
<path d="M323 31H595V105H373L323 31Z" fill="#3D0094"/>
<path d="M407.811 32.8182V59H402.276V32.8182H407.811ZM434.265 32.8182V59H429.483L418.093 42.5213H417.901V59H412.365V32.8182H417.223L428.525 49.2841H428.755V32.8182H434.265ZM443.568 32.8182L449.896 52.7102H450.139L456.48 32.8182H462.616L453.591 59H446.457L437.419 32.8182H443.568ZM488.351 45.9091C488.351 48.7642 487.81 51.1932 486.727 53.196C485.653 55.1989 484.188 56.7287 482.33 57.7855C480.48 58.8338 478.401 59.358 476.091 59.358C473.764 59.358 471.676 58.8295 469.827 57.7727C467.977 56.7159 466.516 55.1861 465.442 53.1832C464.368 51.1804 463.831 48.7557 463.831 45.9091C463.831 43.054 464.368 40.625 465.442 38.6222C466.516 36.6193 467.977 35.0937 469.827 34.0455C471.676 32.9886 473.764 32.4602 476.091 32.4602C478.401 32.4602 480.48 32.9886 482.33 34.0455C484.188 35.0937 485.653 36.6193 486.727 38.6222C487.81 40.625 488.351 43.054 488.351 45.9091ZM482.739 45.9091C482.739 44.0597 482.462 42.5 481.908 41.2301C481.362 39.9602 480.591 38.9972 479.594 38.3409C478.597 37.6847 477.429 37.3565 476.091 37.3565C474.753 37.3565 473.585 37.6847 472.588 38.3409C471.591 38.9972 470.815 39.9602 470.261 41.2301C469.716 42.5 469.443 44.0597 469.443 45.9091C469.443 47.7585 469.716 49.3182 470.261 50.5881C470.815 51.858 471.591 52.821 472.588 53.4773C473.585 54.1335 474.753 54.4616 476.091 54.4616C477.429 54.4616 478.597 54.1335 479.594 53.4773C480.591 52.821 481.362 51.858 481.908 50.5881C482.462 49.3182 482.739 47.7585 482.739 45.9091ZM497.987 32.8182V59H492.451V32.8182H497.987ZM525.642 41.9844H520.043C519.94 41.2599 519.732 40.6165 519.416 40.054C519.101 39.483 518.696 38.9972 518.202 38.5966C517.707 38.196 517.136 37.8892 516.489 37.6761C515.849 37.4631 515.155 37.3565 514.405 37.3565C513.05 37.3565 511.869 37.6932 510.864 38.3665C509.858 39.0312 509.078 40.0028 508.524 41.2812C507.97 42.5511 507.693 44.0937 507.693 45.9091C507.693 47.7756 507.97 49.3437 508.524 50.6136C509.087 51.8835 509.871 52.8423 510.876 53.4901C511.882 54.1378 513.045 54.4616 514.366 54.4616C515.108 54.4616 515.794 54.3636 516.425 54.1676C517.064 53.9716 517.631 53.6861 518.125 53.3111C518.619 52.9276 519.028 52.4631 519.352 51.9176C519.685 51.3722 519.915 50.75 520.043 50.0511L525.642 50.0767C525.497 51.2784 525.135 52.4375 524.555 53.554C523.984 54.6619 523.213 55.6548 522.241 56.5327C521.278 57.402 520.128 58.0923 518.79 58.6037C517.46 59.1065 515.956 59.358 514.277 59.358C511.942 59.358 509.854 58.8295 508.013 57.7727C506.18 56.7159 504.732 55.1861 503.666 53.1832C502.609 51.1804 502.081 48.7557 502.081 45.9091C502.081 43.054 502.618 40.625 503.692 38.6222C504.766 36.6193 506.223 35.0937 508.064 34.0455C509.905 32.9886 511.976 32.4602 514.277 32.4602C515.794 32.4602 517.2 32.6733 518.496 33.0994C519.8 33.5256 520.955 34.1477 521.96 34.9659C522.966 35.7756 523.784 36.7685 524.415 37.9446C525.054 39.1207 525.463 40.4673 525.642 41.9844ZM529.612 59V32.8182H547.254V37.3821H535.147V43.6207H546.346V48.1847H535.147V54.4361H547.305V59H529.612Z" fill="white"/>
</svg>
