<svg width="595" height="22" viewBox="0 0 595 22" fill="none" xmlns="http://www.w3.org/2000/svg">
<rect width="595" height="22" fill="#3D0094"/>
<path d="M363 0H595V22H380.966L363 0Z" fill="#D9D9D9"/>
<path d="M415.639 14V8.18182H417.713C418.166 8.18182 418.541 8.2642 418.838 8.42898C419.135 8.59375 419.358 8.81913 419.506 9.10511C419.653 9.3892 419.727 9.70928 419.727 10.0653C419.727 10.4233 419.652 10.7453 419.503 11.0312C419.355 11.3153 419.132 11.5407 418.832 11.7074C418.535 11.8722 418.161 11.9545 417.71 11.9545H416.284V11.2102H417.631C417.917 11.2102 418.149 11.161 418.327 11.0625C418.505 10.9621 418.635 10.8258 418.719 10.6534C418.802 10.4811 418.844 10.285 418.844 10.0653C418.844 9.84564 418.802 9.65057 418.719 9.48011C418.635 9.30966 418.504 9.17614 418.324 9.07955C418.146 8.98295 417.911 8.93466 417.619 8.93466H416.517V14H415.639ZM422.472 14.0881C422.063 14.0881 421.705 13.9943 421.401 13.8068C421.096 13.6193 420.859 13.357 420.69 13.0199C420.522 12.6828 420.438 12.2888 420.438 11.8381C420.438 11.3854 420.522 10.9896 420.69 10.6506C420.859 10.3116 421.096 10.0483 421.401 9.8608C421.705 9.6733 422.063 9.57955 422.472 9.57955C422.881 9.57955 423.238 9.6733 423.543 9.8608C423.848 10.0483 424.084 10.3116 424.253 10.6506C424.421 10.9896 424.506 11.3854 424.506 11.8381C424.506 12.2888 424.421 12.6828 424.253 13.0199C424.084 13.357 423.848 13.6193 423.543 13.8068C423.238 13.9943 422.881 14.0881 422.472 14.0881ZM422.474 13.375C422.74 13.375 422.959 13.3049 423.134 13.1648C423.308 13.0246 423.437 12.8381 423.52 12.6051C423.605 12.3722 423.648 12.1155 423.648 11.8352C423.648 11.5568 423.605 11.3011 423.52 11.0682C423.437 10.8333 423.308 10.6449 423.134 10.5028C422.959 10.3608 422.74 10.2898 422.474 10.2898C422.207 10.2898 421.986 10.3608 421.81 10.5028C421.635 10.6449 421.506 10.8333 421.42 11.0682C421.337 11.3011 421.295 11.5568 421.295 11.8352C421.295 12.1155 421.337 12.3722 421.42 12.6051C421.506 12.8381 421.635 13.0246 421.81 13.1648C421.986 13.3049 422.207 13.375 422.474 13.375ZM426.267 14L424.983 9.63636H425.861L426.716 12.8409H426.759L427.616 9.63636H428.494L429.347 12.8267H429.389L430.239 9.63636H431.116L429.835 14H428.969L428.082 10.8494H428.017L427.131 14H426.267ZM433.67 14.0881C433.241 14.0881 432.87 13.9962 432.56 13.8125C432.251 13.6269 432.012 13.3665 431.844 13.0312C431.677 12.6941 431.594 12.2992 431.594 11.8466C431.594 11.3996 431.677 11.0057 431.844 10.6648C432.012 10.3239 432.247 10.0578 432.548 9.86648C432.851 9.67519 433.205 9.57955 433.611 9.57955C433.857 9.57955 434.096 9.62027 434.327 9.7017C434.558 9.78314 434.765 9.91098 434.949 10.0852C435.133 10.2595 435.277 10.4858 435.384 10.7642C435.49 11.0407 435.543 11.3769 435.543 11.7727V12.0739H432.074V11.4375H434.71C434.71 11.214 434.665 11.0161 434.574 10.8438C434.483 10.6695 434.355 10.5322 434.19 10.4318C434.027 10.3314 433.836 10.2812 433.616 10.2812C433.378 10.2812 433.17 10.34 432.991 10.4574C432.815 10.5729 432.679 10.7244 432.582 10.9119C432.488 11.0975 432.44 11.2992 432.44 11.517V12.0142C432.44 12.3059 432.491 12.554 432.594 12.7585C432.698 12.9631 432.843 13.1193 433.028 13.2273C433.214 13.3333 433.431 13.3864 433.679 13.3864C433.84 13.3864 433.987 13.3636 434.119 13.3182C434.252 13.2708 434.366 13.2008 434.463 13.108C434.56 13.0152 434.634 12.9006 434.685 12.7642L435.489 12.9091C435.424 13.1458 435.309 13.3532 435.142 13.5312C434.977 13.7074 434.77 13.8447 434.52 13.9432C434.272 14.0398 433.989 14.0881 433.67 14.0881ZM436.485 14V9.63636H437.306V10.3295H437.352C437.431 10.0947 437.571 9.91004 437.772 9.77557C437.975 9.6392 438.204 9.57102 438.46 9.57102C438.513 9.57102 438.575 9.57292 438.647 9.5767C438.721 9.58049 438.779 9.58523 438.82 9.59091V10.4034C438.786 10.3939 438.726 10.3835 438.638 10.3722C438.551 10.3589 438.464 10.3523 438.377 10.3523C438.176 10.3523 437.997 10.3949 437.84 10.4801C437.685 10.5634 437.562 10.6799 437.471 10.8295C437.38 10.9773 437.335 11.1458 437.335 11.3352V14H436.485ZM441.28 14.0881C440.85 14.0881 440.48 13.9962 440.169 13.8125C439.86 13.6269 439.622 13.3665 439.453 13.0312C439.286 12.6941 439.203 12.2992 439.203 11.8466C439.203 11.3996 439.286 11.0057 439.453 10.6648C439.622 10.3239 439.857 10.0578 440.158 9.86648C440.461 9.67519 440.815 9.57955 441.22 9.57955C441.466 9.57955 441.705 9.62027 441.936 9.7017C442.167 9.78314 442.375 9.91098 442.558 10.0852C442.742 10.2595 442.887 10.4858 442.993 10.7642C443.099 11.0407 443.152 11.3769 443.152 11.7727V12.0739H439.683V11.4375H442.32C442.32 11.214 442.274 11.0161 442.183 10.8438C442.092 10.6695 441.964 10.5322 441.8 10.4318C441.637 10.3314 441.446 10.2812 441.226 10.2812C440.987 10.2812 440.779 10.34 440.601 10.4574C440.425 10.5729 440.288 10.7244 440.192 10.9119C440.097 11.0975 440.05 11.2992 440.05 11.517V12.0142C440.05 12.3059 440.101 12.554 440.203 12.7585C440.307 12.9631 440.452 13.1193 440.638 13.2273C440.823 13.3333 441.04 13.3864 441.288 13.3864C441.449 13.3864 441.596 13.3636 441.729 13.3182C441.861 13.2708 441.976 13.2008 442.072 13.108C442.169 13.0152 442.243 12.9006 442.294 12.7642L443.098 12.9091C443.034 13.1458 442.918 13.3532 442.751 13.5312C442.587 13.7074 442.379 13.8447 442.129 13.9432C441.881 14.0398 441.598 14.0881 441.28 14.0881ZM445.728 14.0852C445.376 14.0852 445.061 13.9953 444.785 13.8153C444.51 13.6335 444.294 13.375 444.137 13.0398C443.982 12.7027 443.904 12.2983 443.904 11.8267C443.904 11.3551 443.983 10.9517 444.14 10.6165C444.299 10.2812 444.517 10.0246 444.793 9.84659C445.07 9.66856 445.383 9.57955 445.734 9.57955C446.004 9.57955 446.222 9.625 446.387 9.71591C446.554 9.80492 446.683 9.90909 446.773 10.0284C446.866 10.1477 446.938 10.2528 446.989 10.3438H447.04V8.18182H447.89V14H447.06V13.321H446.989C446.938 13.4138 446.864 13.5199 446.768 13.6392C446.673 13.7585 446.542 13.8627 446.376 13.9517C446.209 14.0407 445.993 14.0852 445.728 14.0852ZM445.915 13.3608C446.16 13.3608 446.366 13.2964 446.535 13.1676C446.705 13.0369 446.834 12.8561 446.921 12.625C447.01 12.3939 447.055 12.125 447.055 11.8182C447.055 11.5152 447.011 11.25 446.924 11.0227C446.837 10.7955 446.709 10.6184 446.54 10.4915C446.372 10.3646 446.164 10.3011 445.915 10.3011C445.66 10.3011 445.447 10.3674 445.276 10.5C445.106 10.6326 444.977 10.8134 444.89 11.0426C444.805 11.2718 444.762 11.5303 444.762 11.8182C444.762 12.1098 444.806 12.3722 444.893 12.6051C444.98 12.8381 445.109 13.0227 445.279 13.1591C445.451 13.2936 445.664 13.3608 445.915 13.3608ZM451.288 14V8.18182H452.137V10.3438H452.188C452.237 10.2528 452.308 10.1477 452.401 10.0284C452.494 9.90909 452.623 9.80492 452.788 9.71591C452.952 9.625 453.17 9.57955 453.441 9.57955C453.793 9.57955 454.108 9.66856 454.384 9.84659C454.661 10.0246 454.878 10.2812 455.035 10.6165C455.194 10.9517 455.273 11.3551 455.273 11.8267C455.273 12.2983 455.195 12.7027 455.038 13.0398C454.88 13.375 454.665 13.6335 454.39 13.8153C454.115 13.9953 453.802 14.0852 453.45 14.0852C453.184 14.0852 452.968 14.0407 452.799 13.9517C452.632 13.8627 452.502 13.7585 452.407 13.6392C452.312 13.5199 452.239 13.4138 452.188 13.321H452.117V14H451.288ZM452.12 11.8182C452.12 12.125 452.165 12.3939 452.254 12.625C452.343 12.8561 452.471 13.0369 452.64 13.1676C452.808 13.2964 453.015 13.3608 453.259 13.3608C453.513 13.3608 453.725 13.2936 453.896 13.1591C454.066 13.0227 454.195 12.8381 454.282 12.6051C454.371 12.3722 454.415 12.1098 454.415 11.8182C454.415 11.5303 454.372 11.2718 454.285 11.0426C454.2 10.8134 454.071 10.6326 453.898 10.5C453.728 10.3674 453.515 10.3011 453.259 10.3011C453.013 10.3011 452.805 10.3646 452.634 10.4915C452.466 10.6184 452.338 10.7955 452.251 11.0227C452.164 11.25 452.12 11.5152 452.12 11.8182ZM456.616 15.6364C456.489 15.6364 456.373 15.6259 456.269 15.6051C456.165 15.5862 456.087 15.5653 456.036 15.5426L456.241 14.8466C456.396 14.8883 456.534 14.9063 456.656 14.9006C456.777 14.8949 456.884 14.8494 456.977 14.7642C457.071 14.679 457.155 14.5398 457.227 14.3466L457.332 14.0568L455.735 9.63636H456.644L457.749 13.0227H457.795L458.9 9.63636H459.812L458.013 14.5824C457.93 14.8097 457.824 15.0019 457.695 15.1591C457.567 15.3182 457.413 15.4375 457.235 15.517C457.057 15.5966 456.851 15.6364 456.616 15.6364ZM463.673 14L462.389 9.63636H463.267L464.122 12.8409H464.165L465.023 9.63636H465.901L466.753 12.8267H466.795L467.645 9.63636H468.523L467.241 14H466.375L465.489 10.8494H465.423L464.537 14H463.673ZM470.275 14L468.991 9.63636H469.869L470.724 12.8409H470.766L471.624 9.63636H472.502L473.354 12.8267H473.397L474.246 9.63636H475.124L473.843 14H472.977L472.09 10.8494H472.025L471.138 14H470.275ZM476.876 14L475.592 9.63636H476.47L477.325 12.8409H477.368L478.226 9.63636H479.104L479.956 12.8267H479.999L480.848 9.63636H481.726L480.445 14H479.578L478.692 10.8494H478.626L477.74 14H476.876ZM482.498 14.054C482.343 14.054 482.209 13.9991 482.097 13.8892C481.986 13.7775 481.93 13.643 481.93 13.4858C481.93 13.3305 481.986 13.1979 482.097 13.0881C482.209 12.9763 482.343 12.9205 482.498 12.9205C482.653 12.9205 482.787 12.9763 482.898 13.0881C483.01 13.1979 483.066 13.3305 483.066 13.4858C483.066 13.59 483.04 13.6856 482.987 13.7727C482.935 13.858 482.867 13.9261 482.782 13.9773C482.697 14.0284 482.602 14.054 482.498 14.054ZM484.272 14V8.18182H485.121V10.3438H485.173C485.222 10.2528 485.293 10.1477 485.386 10.0284C485.478 9.90909 485.607 9.80492 485.772 9.71591C485.937 9.625 486.155 9.57955 486.425 9.57955C486.778 9.57955 487.092 9.66856 487.369 9.84659C487.645 10.0246 487.862 10.2812 488.019 10.6165C488.178 10.9517 488.258 11.3551 488.258 11.8267C488.258 12.2983 488.179 12.7027 488.022 13.0398C487.865 13.375 487.649 13.6335 487.374 13.8153C487.1 13.9953 486.786 14.0852 486.434 14.0852C486.169 14.0852 485.952 14.0407 485.783 13.9517C485.617 13.8627 485.486 13.7585 485.391 13.6392C485.297 13.5199 485.224 13.4138 485.173 13.321H485.102V14H484.272ZM485.104 11.8182C485.104 12.125 485.149 12.3939 485.238 12.625C485.327 12.8561 485.456 13.0369 485.624 13.1676C485.793 13.2964 485.999 13.3608 486.244 13.3608C486.497 13.3608 486.71 13.2936 486.88 13.1591C487.05 13.0227 487.179 12.8381 487.266 12.6051C487.355 12.3722 487.4 12.1098 487.4 11.8182C487.4 11.5303 487.356 11.2718 487.269 11.0426C487.184 10.8134 487.055 10.6326 486.883 10.5C486.712 10.3674 486.499 10.3011 486.244 10.3011C485.997 10.3011 485.789 10.3646 485.619 10.4915C485.45 10.6184 485.322 10.7955 485.235 11.0227C485.148 11.25 485.104 11.5152 485.104 11.8182ZM491.05 14.0881C490.641 14.0881 490.284 13.9943 489.979 13.8068C489.674 13.6193 489.437 13.357 489.268 13.0199C489.1 12.6828 489.016 12.2888 489.016 11.8381C489.016 11.3854 489.1 10.9896 489.268 10.6506C489.437 10.3116 489.674 10.0483 489.979 9.8608C490.284 9.6733 490.641 9.57955 491.05 9.57955C491.459 9.57955 491.816 9.6733 492.121 9.8608C492.426 10.0483 492.662 10.3116 492.831 10.6506C493 10.9896 493.084 11.3854 493.084 11.8381C493.084 12.2888 493 12.6828 492.831 13.0199C492.662 13.357 492.426 13.6193 492.121 13.8068C491.816 13.9943 491.459 14.0881 491.05 14.0881ZM491.053 13.375C491.318 13.375 491.537 13.3049 491.712 13.1648C491.886 13.0246 492.015 12.8381 492.098 12.6051C492.183 12.3722 492.226 12.1155 492.226 11.8352C492.226 11.5568 492.183 11.3011 492.098 11.0682C492.015 10.8333 491.886 10.6449 491.712 10.5028C491.537 10.3608 491.318 10.2898 491.053 10.2898C490.786 10.2898 490.564 10.3608 490.388 10.5028C490.214 10.6449 490.084 10.8333 489.999 11.0682C489.915 11.3011 489.874 11.5568 489.874 11.8352C489.874 12.1155 489.915 12.3722 489.999 12.6051C490.084 12.8381 490.214 13.0246 490.388 13.1648C490.564 13.3049 490.786 13.375 491.053 13.375ZM495.87 14.0881C495.461 14.0881 495.104 13.9943 494.799 13.8068C494.494 13.6193 494.257 13.357 494.089 13.0199C493.92 12.6828 493.836 12.2888 493.836 11.8381C493.836 11.3854 493.92 10.9896 494.089 10.6506C494.257 10.3116 494.494 10.0483 494.799 9.8608C495.104 9.6733 495.461 9.57955 495.87 9.57955C496.279 9.57955 496.636 9.6733 496.941 9.8608C497.246 10.0483 497.483 10.3116 497.651 10.6506C497.82 10.9896 497.904 11.3854 497.904 11.8381C497.904 12.2888 497.82 12.6828 497.651 13.0199C497.483 13.357 497.246 13.6193 496.941 13.8068C496.636 13.9943 496.279 14.0881 495.87 14.0881ZM495.873 13.375C496.138 13.375 496.358 13.3049 496.532 13.1648C496.706 13.0246 496.835 12.8381 496.918 12.6051C497.004 12.3722 497.046 12.1155 497.046 11.8352C497.046 11.5568 497.004 11.3011 496.918 11.0682C496.835 10.8333 496.706 10.6449 496.532 10.5028C496.358 10.3608 496.138 10.2898 495.873 10.2898C495.606 10.2898 495.384 10.3608 495.208 10.5028C495.034 10.6449 494.904 10.8333 494.819 11.0682C494.736 11.3011 494.694 11.5568 494.694 11.8352C494.694 12.1155 494.736 12.3722 494.819 12.6051C494.904 12.8381 495.034 13.0246 495.208 13.1648C495.384 13.3049 495.606 13.375 495.873 13.375ZM499.634 12.5199L499.628 11.483H499.776L501.514 9.63636H502.531L500.548 11.7386H500.415L499.634 12.5199ZM498.852 14V8.18182H499.702V14H498.852ZM501.608 14L500.045 11.9261L500.631 11.3324L502.651 14H501.608ZM503.305 14V9.63636H504.155V14H503.305ZM503.734 8.96307C503.587 8.96307 503.46 8.91383 503.354 8.81534C503.25 8.71496 503.197 8.59564 503.197 8.45739C503.197 8.31723 503.25 8.19792 503.354 8.09943C503.46 7.99905 503.587 7.94886 503.734 7.94886C503.882 7.94886 504.008 7.99905 504.112 8.09943C504.218 8.19792 504.271 8.31723 504.271 8.45739C504.271 8.59564 504.218 8.71496 504.112 8.81534C504.008 8.91383 503.882 8.96307 503.734 8.96307ZM507.178 14.0881C506.748 14.0881 506.378 13.9962 506.067 13.8125C505.759 13.6269 505.52 13.3665 505.352 13.0312C505.185 12.6941 505.102 12.2992 505.102 11.8466C505.102 11.3996 505.185 11.0057 505.352 10.6648C505.52 10.3239 505.755 10.0578 506.056 9.86648C506.359 9.67519 506.713 9.57955 507.119 9.57955C507.365 9.57955 507.603 9.62027 507.835 9.7017C508.066 9.78314 508.273 9.91098 508.457 10.0852C508.64 10.2595 508.785 10.4858 508.891 10.7642C508.997 11.0407 509.05 11.3769 509.05 11.7727V12.0739H505.582V11.4375H508.218C508.218 11.214 508.173 11.0161 508.082 10.8438C507.991 10.6695 507.863 10.5322 507.698 10.4318C507.535 10.3314 507.344 10.2812 507.124 10.2812C506.886 10.2812 506.677 10.34 506.499 10.4574C506.323 10.5729 506.187 10.7244 506.09 10.9119C505.996 11.0975 505.948 11.2992 505.948 11.517V12.0142C505.948 12.3059 505.999 12.554 506.102 12.7585C506.206 12.9631 506.351 13.1193 506.536 13.2273C506.722 13.3333 506.939 13.3864 507.187 13.3864C507.348 13.3864 507.495 13.3636 507.627 13.3182C507.76 13.2708 507.874 13.2008 507.971 13.108C508.067 13.0152 508.141 12.9006 508.192 12.7642L508.996 12.9091C508.932 13.1458 508.817 13.3532 508.65 13.5312C508.485 13.7074 508.278 13.8447 508.028 13.9432C507.78 14.0398 507.496 14.0881 507.178 14.0881ZM510.061 14V8.18182H510.911V10.3438H510.962C511.011 10.2528 511.082 10.1477 511.175 10.0284C511.268 9.90909 511.396 9.80492 511.561 9.71591C511.726 9.625 511.944 9.57955 512.214 9.57955C512.567 9.57955 512.881 9.66856 513.158 9.84659C513.434 10.0246 513.651 10.2812 513.808 10.6165C513.967 10.9517 514.047 11.3551 514.047 11.8267C514.047 12.2983 513.968 12.7027 513.811 13.0398C513.654 13.375 513.438 13.6335 513.163 13.8153C512.889 13.9953 512.575 14.0852 512.223 14.0852C511.958 14.0852 511.741 14.0407 511.572 13.9517C511.406 13.8627 511.275 13.7585 511.18 13.6392C511.086 13.5199 511.013 13.4138 510.962 13.321H510.891V14H510.061ZM510.893 11.8182C510.893 12.125 510.938 12.3939 511.027 12.625C511.116 12.8561 511.245 13.0369 511.413 13.1676C511.582 13.2964 511.788 13.3608 512.033 13.3608C512.286 13.3608 512.499 13.2936 512.669 13.1591C512.839 13.0227 512.968 12.8381 513.055 12.6051C513.144 12.3722 513.189 12.1098 513.189 11.8182C513.189 11.5303 513.145 11.2718 513.058 11.0426C512.973 10.8134 512.844 10.6326 512.672 10.5C512.501 10.3674 512.288 10.3011 512.033 10.3011C511.786 10.3011 511.578 10.3646 511.408 10.4915C511.239 10.6184 511.111 10.7955 511.024 11.0227C510.937 11.25 510.893 11.5152 510.893 11.8182ZM517.765 12.1903V9.63636H518.617V14H517.782V13.2443H517.737C517.636 13.4773 517.475 13.6714 517.254 13.8267C517.034 13.9801 516.76 14.0568 516.433 14.0568C516.152 14.0568 515.904 13.9953 515.688 13.8722C515.474 13.7472 515.306 13.5625 515.183 13.3182C515.061 13.0739 515.001 12.7718 515.001 12.4119V9.63636H515.85V12.3097C515.85 12.607 515.933 12.8437 516.097 13.0199C516.262 13.196 516.476 13.2841 516.739 13.2841C516.898 13.2841 517.057 13.2443 517.214 13.1648C517.373 13.0852 517.504 12.965 517.609 12.804C517.715 12.643 517.767 12.4384 517.765 12.1903ZM521.392 14.0852C521.04 14.0852 520.725 13.9953 520.449 13.8153C520.174 13.6335 519.958 13.375 519.801 13.0398C519.646 12.7027 519.568 12.2983 519.568 11.8267C519.568 11.3551 519.647 10.9517 519.804 10.6165C519.963 10.2812 520.181 10.0246 520.457 9.84659C520.734 9.66856 521.047 9.57955 521.398 9.57955C521.669 9.57955 521.886 9.625 522.051 9.71591C522.218 9.80492 522.347 9.90909 522.438 10.0284C522.53 10.1477 522.602 10.2528 522.653 10.3438H522.705V8.18182H523.554V14H522.724V13.321H522.653C522.602 13.4138 522.528 13.5199 522.432 13.6392C522.337 13.7585 522.206 13.8627 522.04 13.9517C521.873 14.0407 521.657 14.0852 521.392 14.0852ZM521.58 13.3608C521.824 13.3608 522.03 13.2964 522.199 13.1676C522.369 13.0369 522.498 12.8561 522.585 12.625C522.674 12.3939 522.719 12.125 522.719 11.8182C522.719 11.5152 522.675 11.25 522.588 11.0227C522.501 10.7955 522.373 10.6184 522.205 10.4915C522.036 10.3646 521.828 10.3011 521.58 10.3011C521.324 10.3011 521.111 10.3674 520.94 10.5C520.77 10.6326 520.641 10.8134 520.554 11.0426C520.469 11.2718 520.426 11.5303 520.426 11.8182C520.426 12.1098 520.47 12.3722 520.557 12.6051C520.644 12.8381 520.773 13.0227 520.943 13.1591C521.116 13.2936 521.328 13.3608 521.58 13.3608ZM526.4 14.0852C526.048 14.0852 525.733 13.9953 525.457 13.8153C525.182 13.6335 524.966 13.375 524.809 13.0398C524.654 12.7027 524.576 12.2983 524.576 11.8267C524.576 11.3551 524.655 10.9517 524.812 10.6165C524.971 10.2812 525.189 10.0246 525.465 9.84659C525.742 9.66856 526.055 9.57955 526.406 9.57955C526.676 9.57955 526.894 9.625 527.059 9.71591C527.226 9.80492 527.354 9.90909 527.445 10.0284C527.538 10.1477 527.61 10.2528 527.661 10.3438H527.712V8.18182H528.562V14H527.732V13.321H527.661C527.61 13.4138 527.536 13.5199 527.44 13.6392C527.345 13.7585 527.214 13.8627 527.048 13.9517C526.881 14.0407 526.665 14.0852 526.4 14.0852ZM526.587 13.3608C526.832 13.3608 527.038 13.2964 527.207 13.1676C527.377 13.0369 527.506 12.8561 527.593 12.625C527.682 12.3939 527.727 12.125 527.727 11.8182C527.727 11.5152 527.683 11.25 527.596 11.0227C527.509 10.7955 527.381 10.6184 527.212 10.4915C527.044 10.3646 526.835 10.3011 526.587 10.3011C526.332 10.3011 526.119 10.3674 525.948 10.5C525.778 10.6326 525.649 10.8134 525.562 11.0426C525.477 11.2718 525.434 11.5303 525.434 11.8182C525.434 12.1098 525.478 12.3722 525.565 12.6051C525.652 12.8381 525.781 13.0227 525.951 13.1591C526.123 13.2936 526.335 13.3608 526.587 13.3608ZM530.311 15.6364C530.184 15.6364 530.069 15.6259 529.964 15.6051C529.86 15.5862 529.783 15.5653 529.732 15.5426L529.936 14.8466C530.091 14.8883 530.23 14.9063 530.351 14.9006C530.472 14.8949 530.579 14.8494 530.672 14.7642C530.767 14.679 530.85 14.5398 530.922 14.3466L531.027 14.0568L529.43 9.63636H530.339L531.445 13.0227H531.49L532.595 9.63636H533.507L531.709 14.5824C531.625 14.8097 531.519 15.0019 531.391 15.1591C531.262 15.3182 531.108 15.4375 530.93 15.517C530.752 15.5966 530.546 15.6364 530.311 15.6364ZM534.592 14.054C534.436 14.054 534.303 13.9991 534.191 13.8892C534.079 13.7775 534.023 13.643 534.023 13.4858C534.023 13.3305 534.079 13.1979 534.191 13.0881C534.303 12.9763 534.436 12.9205 534.592 12.9205C534.747 12.9205 534.88 12.9763 534.992 13.0881C535.104 13.1979 535.16 13.3305 535.16 13.4858C535.16 13.59 535.133 13.6856 535.08 13.7727C535.029 13.858 534.961 13.9261 534.876 13.9773C534.79 14.0284 534.696 14.054 534.592 14.054ZM536.298 14V9.63636H537.147V14H536.298ZM536.727 8.96307C536.579 8.96307 536.452 8.91383 536.346 8.81534C536.242 8.71496 536.19 8.59564 536.19 8.45739C536.19 8.31723 536.242 8.19792 536.346 8.09943C536.452 7.99905 536.579 7.94886 536.727 7.94886C536.874 7.94886 537 7.99905 537.104 8.09943C537.21 8.19792 537.263 8.31723 537.263 8.45739C537.263 8.59564 537.21 8.71496 537.104 8.81534C537 8.91383 536.874 8.96307 536.727 8.96307ZM539.139 11.4091V14H538.29V9.63636H539.105V10.3466H539.159C539.259 10.1155 539.417 9.92992 539.631 9.78977C539.847 9.64962 540.118 9.57955 540.446 9.57955C540.743 9.57955 541.004 9.64205 541.227 9.76705C541.451 9.89015 541.624 10.0739 541.747 10.3182C541.87 10.5625 541.932 10.8646 541.932 11.2244V14H541.082V11.3267C541.082 11.0104 541 10.7633 540.835 10.5852C540.67 10.4053 540.444 10.3153 540.156 10.3153C539.959 10.3153 539.784 10.358 539.631 10.4432C539.479 10.5284 539.359 10.6534 539.27 10.8182C539.183 10.9811 539.139 11.178 539.139 11.4091Z" fill="black"/>
</svg>
