<svg width="175" height="215" viewBox="0 0 175 215" fill="none" xmlns="http://www.w3.org/2000/svg">
<path d="M173.982 153.928C173.438 137.937 165.783 122.456 153.745 112.011C151.916 110.487 150.129 108.842 148.002 107.747C146.704 108.163 145.652 109.074 144.48 109.745C139.579 112.945 134.488 115.828 129.512 118.902C125.722 121.052 121.986 123.439 117.75 124.596C116.885 124.757 117.679 125.633 118.062 125.866C120.046 127.439 122.062 128.972 123.983 130.621C128.741 134.871 132.085 140.798 132.909 147.166C134.069 154.675 131.616 162.585 126.6 168.253C121.29 174.344 113.193 177.629 105.172 177.504C84.8677 177.558 47.1971 177.531 26.8926 177.473V214.979C47.2061 214.988 84.8811 215.002 105.195 214.97C113.425 214.859 121.794 215.547 129.869 213.567C146.036 209.92 160.169 198.59 167.557 183.761C172.194 174.586 174.357 164.19 173.982 153.928Z" fill="url(#paint0_linear_2033_739)"/>
<path d="M48.4685 107.547C48.686 107.424 48.9058 107.308 49.1302 107.199C49.2607 107.821 48.9768 108.421 48.8875 109.032C48.2876 112.091 48.8806 115.39 50.6596 117.996C52.1616 120.279 54.5909 121.88 57.2033 122.74C60.9927 123.904 65.2284 123.666 68.8415 122.045C70.245 121.505 71.4104 120.553 72.672 119.775C76.0034 117.671 79.3096 115.53 82.6432 113.428C83.6713 112.728 85.1343 112.623 86.2471 113.19C87.7193 114.113 89.0084 115.281 90.4714 116.219C98.7529 122.274 107.124 128.213 115.364 134.32C118.185 136.045 119.293 139.904 117.896 142.829C117.253 144.189 116.179 145.355 114.831 146.082C106.414 151.7 98.0592 157.405 89.6495 163.034C87.1584 164.66 83.6278 164.631 81.2214 162.865C74.4281 157.898 67.6211 152.953 60.837 147.975C57.6819 145.705 53.2377 145.551 49.7621 147.197C46.7696 148.831 43.7908 150.628 41.5058 153.16C38.6621 156.596 37.2311 161.044 37.2723 165.435C37.2539 169.279 37.2517 173.125 37.2883 176.968C37.1257 189.642 37.2677 202.321 37.1853 214.995C30.2294 214.99 23.2736 214.999 16.3154 214.999C15.2554 214.988 14.1907 215.04 13.1352 214.91C9.34816 214.504 5.69622 212.641 3.33563 209.707C1.25895 207.312 0.0889584 204.227 0.00195312 201.097C0.0179804 186.459 -0.000334252 171.82 0.00424497 157.184C0.157649 154.786 0.356844 152.376 1.0048 150.048C2.14274 145.737 4.02481 141.599 6.63038 137.936C10.3327 132.57 15.4111 128.267 20.7848 124.542C22.1883 123.581 23.6697 122.738 25.1144 121.84C32.8968 117.073 40.6357 112.238 48.4685 107.547Z" fill="#9152EF"/>
<path d="M146.485 12.347C142.576 9.21257 138.235 6.62814 133.56 4.76359C126.019 1.62023 117.805 0.274358 109.666 0.404027C74.0114 0.404027 38.352 0.430855 2.69695 0.404027C2.01505 0.488983 1.2039 0.243058 0.62005 0.703606C0.183276 0.976358 0.00500137 1.37878 0.0941389 1.91981C0.0941389 34.1179 0.0584839 66.3161 0.000544496 98.5142C-0.017283 100.218 0.401663 101.966 1.40446 103.366C3.59279 106.348 8.03629 107.023 11.1606 105.172C19.7178 100.106 28.1457 94.8164 36.6806 89.7012C39.3146 88.1228 40.8924 85.0555 40.7988 81.9971C40.7765 67.9705 40.7988 53.9439 40.7542 39.9173C40.7943 39.2376 40.6695 38.4149 41.3024 37.9633C42.2205 37.7263 43.1787 37.847 44.1147 37.8202C63.8854 37.8694 83.6516 37.8381 103.422 37.8515C107.795 37.8247 112.211 38.8933 115.96 41.1871C122.057 44.9788 126.184 51.6545 127.111 58.764C128.006 64.4158 126.767 70.3135 123.942 75.2588C123.38 76.1664 122.926 77.2262 121.967 77.7895C121.967 77.7895 165.68 49.8571 146.485 12.347Z" fill="url(#paint1_linear_2033_739)"/>
<path d="M146.485 12.347C142.576 9.21257 138.235 6.62814 133.56 4.76359C126.019 1.62023 117.805 0.274358 109.666 0.404027C74.0114 0.404027 38.352 0.430855 2.69695 0.404027C2.01505 0.488983 1.2039 0.243058 0.62005 0.703606C0.183276 0.976358 0.00500137 1.37878 0.0941389 1.91981C0.0941389 34.1179 0.0584839 66.3161 0.000544496 98.5142C-0.017283 100.218 0.401663 101.966 1.40446 103.366C3.59279 106.348 8.03629 107.023 11.1606 105.172C19.7178 100.106 28.1457 94.8164 36.6806 89.7012C39.3146 88.1228 40.8924 85.0555 40.7988 81.9971C40.7765 67.9705 40.7988 53.9439 40.7542 39.9173C40.7943 39.2376 40.6695 38.4149 41.3024 37.9633C42.2205 37.7263 43.1787 37.847 44.1147 37.8202C63.8854 37.8694 83.6516 37.8381 103.422 37.8515C107.795 37.8247 112.211 38.8933 115.96 41.1871C122.057 44.9788 126.184 51.6545 127.111 58.764C128.006 64.4158 126.767 70.3135 123.942 75.2588C123.38 76.1664 122.926 77.2262 121.967 77.7895C121.967 77.7895 165.68 49.8571 146.485 12.347Z" fill="url(#paint2_linear_2033_739)"/>
<path d="M86.052 84.92C82.2347 85.6325 79.1799 87.9973 76.4526 90.3932C73.8182 92.4462 71.1006 94.4191 68.5981 96.6057C64.8444 99.5583 61.0272 102.453 57.3663 105.499C54.4288 107.891 53.7348 112.54 56.5696 115.23C59.1112 117.889 63.7887 117.857 66.8239 115.925C70.5874 113.578 74.1847 111.021 77.9042 108.617C80.221 107.085 83.2562 106.341 86.0569 107.098C88.9308 107.655 91.0423 109.619 93.2906 111.191C96.492 113.6 99.6201 116.098 102.983 118.32C105.676 120.093 109.224 120.543 112.426 119.893C116.175 119.242 119.278 117.109 122.558 115.475C126.013 113.756 129.342 111.827 132.714 109.97C137.25 107.69 141.62 105.138 145.755 102.293C161.053 91.373 169.357 73.2654 168.174 55.6968C167.847 48.6248 165.892 41.7042 163.052 35.1399C159.103 26.3088 154.063 17.8381 145.881 11.875C166.932 49.2301 117.582 77.5541 117.582 77.5541C113.374 79.9099 109.303 82.6532 104.474 83.8601C98.4471 85.3119 92.1175 83.8645 86.052 84.92Z" fill="url(#paint3_linear_2033_739)"/>
<defs>
<linearGradient id="paint0_linear_2033_739" x1="175.228" y1="144.475" x2="-8.0147" y2="225.608" gradientUnits="userSpaceOnUse">
<stop stop-color="#6026D4"/>
<stop offset="0.350962" stop-color="#7938F1"/>
<stop offset="0.55" stop-color="#7938F1"/>
<stop offset="0.951923" stop-color="#4714B7"/>
</linearGradient>
<linearGradient id="paint1_linear_2033_739" x1="12.0612" y1="-19.1808" x2="157.973" y2="27.4789" gradientUnits="userSpaceOnUse">
<stop stop-color="#7E3AEF"/>
<stop offset="1" stop-color="#3C0B8E"/>
</linearGradient>
<linearGradient id="paint2_linear_2033_739" x1="-5.85565" y1="0.791442" x2="16.6792" y2="101.62" gradientUnits="userSpaceOnUse">
<stop stop-color="#9B57FC"/>
<stop offset="1" stop-color="#5718CA"/>
</linearGradient>
<linearGradient id="paint3_linear_2033_739" x1="167.888" y1="29.2115" x2="84.6554" y2="120.017" gradientUnits="userSpaceOnUse">
<stop stop-color="#A566F5"/>
<stop offset="1" stop-color="#8145F2"/>
</linearGradient>
</defs>
</svg>
