<svg width="187" height="330" viewBox="0 0 187 330" fill="none" xmlns="http://www.w3.org/2000/svg">
<g filter="url(#filter0_g_130_408)">
<path d="M27.9852 154.005C22.5536 164.701 17.8379 188.461 42.4281 197.937C77.0601 209.388 104.082 205.619 75.8642 242.671" stroke="#8255FF" stroke-width="11" stroke-linecap="round"/>
</g>
<path d="M123.684 70.2477C124.019 70.5246 124.471 70.9747 124.939 71.6764C125.867 73.0652 126.879 75.457 127.184 79.4615L127.234 80.2838C127.459 84.8562 127.763 92.3176 128.011 98.6373C128.135 101.797 128.244 104.67 128.323 106.754C128.363 107.795 128.394 108.64 128.416 109.224C128.427 109.516 128.436 109.742 128.441 109.896C128.444 109.973 128.446 110.032 128.447 110.072C128.448 110.091 128.449 110.106 128.449 110.116C128.449 110.121 128.45 110.125 128.45 110.128C128.45 110.129 128.45 110.13 128.45 110.13L128.949 110.113L128.45 110.131L128.456 110.286L128.548 110.41L128.549 110.412C128.55 110.413 128.551 110.415 128.553 110.418C128.557 110.423 128.564 110.433 128.573 110.445C128.591 110.469 128.617 110.506 128.65 110.554C128.718 110.651 128.817 110.793 128.936 110.972C129.174 111.332 129.494 111.84 129.823 112.435C130.448 113.564 131.076 114.955 131.265 116.213L131.296 116.463C131.374 117.22 131.741 118.833 132.23 120.783C132.724 122.749 133.354 125.101 133.975 127.361C134.595 129.621 135.206 131.792 135.662 133.398C135.89 134.201 136.079 134.863 136.211 135.324C136.238 135.419 136.263 135.506 136.285 135.584L126.338 138.902L123.821 134.271L121.501 83.8941L123.684 70.2477Z" stroke="black"/>
<path d="M137.739 121.844C138.982 121.844 139.689 122.542 139.689 123.208V124.17L135.198 123.319C135.348 123.179 135.519 123.027 135.703 122.876C136.036 122.602 136.405 122.337 136.77 122.144C137.142 121.947 137.472 121.844 137.739 121.844Z" stroke="black"/>
<path d="M146.917 132.887C146.995 133.029 147.078 133.19 147.155 133.364C147.423 133.971 147.589 134.643 147.448 135.206L147.416 135.317C147.321 135.602 147.053 136.005 146.645 136.479C146.247 136.941 145.758 137.425 145.276 137.868C144.796 138.311 144.33 138.707 143.983 138.993C143.811 139.136 143.668 139.25 143.569 139.329C143.52 139.369 143.481 139.399 143.455 139.42C143.442 139.43 143.432 139.437 143.426 139.442C143.423 139.445 143.421 139.447 143.419 139.448L143.417 139.449V139.45L143.375 139.482L143.342 139.521L143.341 139.522C143.34 139.523 143.34 139.524 143.339 139.525C143.337 139.528 143.333 139.532 143.328 139.538C143.319 139.549 143.304 139.566 143.285 139.587C143.247 139.63 143.192 139.693 143.123 139.769C142.985 139.92 142.796 140.119 142.59 140.317C142.382 140.518 142.166 140.706 141.974 140.841C141.878 140.908 141.797 140.955 141.734 140.983C141.667 141.014 141.65 141.011 141.67 141.011C141.566 141.011 141.426 141.021 141.287 141.032C141.14 141.044 140.973 141.059 140.792 141.07C140.428 141.094 140.025 141.104 139.658 141.064C139.28 141.024 139.007 140.936 138.85 140.816C138.747 140.738 138.667 140.631 138.671 140.41L138.678 140.309C138.753 139.671 139.266 139.243 139.917 138.957C140.23 138.82 140.541 138.731 140.776 138.677C140.893 138.65 140.99 138.633 141.056 138.622C141.088 138.617 141.113 138.613 141.129 138.61C141.137 138.609 141.143 138.609 141.146 138.608C141.148 138.608 141.149 138.607 141.149 138.607L141.148 138.606L141.545 138.561L141.585 138.18C141.586 138.174 141.589 138.165 141.594 138.151C141.607 138.112 141.635 138.039 141.696 137.938C141.803 137.761 142.012 137.492 142.416 137.175L142.602 137.036C143.176 136.625 143.817 136.17 144.313 135.819C144.562 135.644 144.775 135.494 144.925 135.388C145 135.335 145.06 135.293 145.101 135.265C145.121 135.25 145.137 135.239 145.147 135.231C145.153 135.228 145.157 135.225 145.159 135.223C145.16 135.222 145.161 135.221 145.162 135.221H145.163V135.22L145.229 135.174L145.277 135.108L146.917 132.887Z" stroke="black"/>
<path d="M84.5011 37.6444C84.4212 41.1526 85.0853 44.6379 86.4496 47.8705C87.8139 51.103 89.8475 54.0094 92.4161 56.3979C93.5916 52.9757 94.7721 49.5535 95.9577 46.1312L84.5011 37.6444Z" fill="#263238"/>
<path d="M111.177 17.241C108.051 15.6766 104.477 15.2525 101.071 16.0417C97.6949 16.829 94.4697 18.163 91.5229 19.991C89.7886 20.8855 88.2356 22.0952 86.9433 23.5583C84.7375 26.3389 82.5622 30.8993 82.3637 34.4437C82.1882 37.3007 83.2873 44.4736 84.4933 47.0785C85.6076 49.4618 90.7978 51.2798 93.3624 51.868L116.886 24.4444C116.458 22.9255 115.733 21.5067 114.753 20.2702C113.773 19.0337 112.557 18.0041 111.177 17.241Z" fill="#263238"/>
<path d="M115.253 20.9305L109.62 19.9222C112.673 27.2708 113.536 44.0764 115.299 51.8451C117.375 48.7896 122.206 39.6229 121.947 35.9715C121.687 32.3201 121.932 20.3042 115.253 20.9305Z" fill="#263238"/>
<path d="M108.805 21.463C111.354 21.2028 113.528 22.6254 115.147 24.8888C116.672 27.0197 117.647 29.8289 117.909 32.4249L117.952 32.9406C118.357 39.2108 118.604 45.7725 117.889 50.4005C117.177 54.9597 115.084 57.5049 113.201 58.9152C112.255 59.624 111.353 60.0518 110.69 60.3019C110.36 60.4268 110.089 60.5074 109.904 60.5558C109.812 60.5799 109.741 60.5957 109.695 60.6056C109.673 60.6105 109.656 60.6143 109.646 60.6163C109.64 60.6173 109.637 60.6179 109.635 60.6183H109.634L109.22 60.6906V68.3361L109.345 79.298L91.8408 66.6681L88.9707 33.3458C88.9752 33.3261 88.9794 33.3087 88.9814 33.295L88.9922 33.1964V33.1847C89.0811 31.3522 89.7193 29.5922 90.8184 28.131L91.0439 27.8429C92.2043 26.4225 93.7628 25.3859 95.5146 24.8654L95.8672 24.7687H95.8682L108.805 21.463ZM88.9385 33.0646C88.9397 33.068 88.9407 33.0714 88.9414 33.0734C88.9409 33.0718 88.939 33.0679 88.9375 33.0636C88.9369 33.0619 88.9356 33.0595 88.9346 33.0568C88.936 33.0603 88.9378 33.0628 88.9385 33.0646Z" fill="#C3C1F8" stroke="black"/>
<path d="M116.192 40.0125C116.194 40.3269 116.075 40.6299 115.858 40.8579C115.642 41.0858 115.346 41.2209 115.032 41.2347C114.879 41.2461 114.725 41.2271 114.579 41.1786C114.434 41.1301 114.299 41.0532 114.183 40.9523C114.068 40.8514 113.973 40.7286 113.905 40.5908C113.837 40.4531 113.797 40.3033 113.788 40.15C113.783 39.835 113.902 39.5309 114.119 39.3026C114.336 39.0742 114.633 38.9397 114.948 38.9278C115.101 38.9153 115.255 38.9336 115.401 38.9817C115.547 39.0298 115.682 39.1066 115.798 39.2077C115.914 39.3088 116.009 39.4321 116.076 39.5703C116.144 39.7085 116.183 39.8589 116.192 40.0125Z" fill="#263238"/>
<path d="M117.047 36.5903C116.902 36.7507 115.986 36.0785 114.688 36.0861C113.391 36.0937 112.444 36.743 112.307 36.5826C112.17 36.4222 112.383 36.2312 112.803 35.9257C113.362 35.5329 114.029 35.3245 114.711 35.3298C115.385 35.3285 116.042 35.5397 116.589 35.9333C116.986 36.2389 117.123 36.5215 117.047 36.5903Z" fill="#263238"/>
<path d="M105.025 40.0125C105.028 40.3269 104.908 40.6299 104.692 40.8579C104.475 41.0858 104.179 41.2209 103.865 41.2347C103.712 41.2461 103.558 41.2271 103.413 41.1786C103.267 41.1301 103.133 41.0532 103.017 40.9523C102.901 40.8514 102.807 40.7286 102.739 40.5908C102.671 40.4531 102.631 40.3033 102.621 40.15C102.625 39.8365 102.751 39.5368 102.971 39.3144C103.192 39.0919 103.491 38.9643 103.804 38.9583C104.105 38.9393 104.401 39.039 104.63 39.236C104.858 39.4331 105 39.7118 105.025 40.0125Z" fill="#263238"/>
<path d="M104.735 36.5903C104.59 36.7507 103.675 36.0785 102.377 36.0861C101.079 36.0937 100.133 36.743 99.9956 36.5826C99.8582 36.4222 100.072 36.2312 100.492 35.9257C101.05 35.5329 101.717 35.3245 102.4 35.3298C103.074 35.327 103.731 35.5383 104.277 35.9333C104.674 36.2389 104.812 36.5215 104.735 36.5903Z" fill="#263238"/>
<path d="M108.788 46.7805C109.472 46.5652 110.18 46.4369 110.895 46.3986C111.223 46.3604 111.536 46.2916 111.597 46.0701C111.625 45.7258 111.545 45.3815 111.368 45.0847C111.055 44.3208 110.735 43.45 110.384 42.5639C109.017 38.9812 108.033 36.025 108.178 35.9715C108.323 35.918 109.544 38.7826 110.91 42.3729C111.238 43.259 111.559 44.0993 111.857 44.909C112.065 45.3082 112.127 45.7675 112.032 46.2076C111.984 46.3241 111.91 46.4283 111.816 46.5128C111.722 46.5973 111.611 46.6601 111.49 46.6965C111.306 46.7447 111.116 46.7704 110.926 46.7729C110.217 46.8691 109.498 46.8717 108.788 46.7805Z" fill="#263238"/>
<path d="M115.91 24.3222C115.577 23.6332 115.06 23.05 114.416 22.6373C113.771 22.2247 113.026 21.9988 112.261 21.9847C110.725 21.9813 109.221 22.4187 107.926 23.2451C102.331 26.484 99.4612 34.2986 93.9276 37.6444C92.5689 38.4694 90.7982 37.7208 89.6456 38.8055C88.4931 39.8903 87.7375 41.6396 88.3786 43.0986C87.5893 42.1129 86.9442 41.0198 86.4628 39.8521C86.228 39.2648 86.1201 38.6344 86.1465 38.0024C86.1728 37.3704 86.3326 36.7511 86.6155 36.1854C87.0963 35.3604 87.9359 34.7264 88.142 33.7944C88.3481 32.9771 88.0199 32.1215 88.0581 31.2812C88.1522 30.4247 88.4478 29.6028 88.9205 28.8826C91.0091 24.9723 94.1228 21.7055 97.9271 19.4333C100.43 17.9842 103.279 17.2447 106.17 17.2944C109.07 17.3686 111.849 18.4735 114.009 20.4111C115.246 21.5646 116.551 22.7639 115.91 24.3222Z" fill="#263238"/>
<path d="M89.783 39.9743C89.6838 39.7069 84.7836 37.9347 84.7149 43.1444C84.6538 48.209 89.7601 47.2083 89.7677 47.0632C89.7754 46.918 89.783 39.9743 89.783 39.9743Z" fill="#DDC8FF"/>
<path d="M87.7754 37.3694C87.8817 37.3221 87.9839 37.2659 88.0807 37.2014C88.2715 37.0791 88.5768 36.9111 88.9279 36.659C89.9234 35.9298 90.8393 35.0977 91.6604 34.1764C92.8566 32.7924 93.9727 31.3412 95.0035 29.8298C96.2464 27.9813 97.6431 26.2411 99.1786 24.6278C99.9959 23.8206 100.899 23.1059 101.873 22.4965C102.784 21.9378 103.761 21.494 104.781 21.175C106.505 20.6215 108.317 20.3987 110.124 20.518C111.346 20.5907 112.552 20.8271 113.711 21.2208C114.131 21.3507 114.436 21.4882 114.65 21.5722C114.757 21.6159 114.867 21.6542 114.978 21.6868C114.882 21.6226 114.78 21.5689 114.673 21.5264C114.371 21.3771 114.06 21.247 113.742 21.1368C112.582 20.7157 111.37 20.4586 110.139 20.3729C108.302 20.2339 106.456 20.4439 104.697 20.9917C103.659 21.3152 102.665 21.7641 101.736 22.3285C100.745 22.9427 99.8262 23.6652 98.9954 24.4826C97.4533 26.1086 96.0539 27.8644 94.8127 29.7305C93.7955 31.2403 92.6973 32.6938 91.523 34.0847C90.7194 35.0122 89.8272 35.8591 88.8592 36.6132C88.5158 36.8729 88.2257 37.0486 88.0425 37.1861C87.9493 37.2408 87.86 37.3021 87.7754 37.3694Z" fill="#8E8E8E"/>
<path d="M89.0425 38.8055C88.8385 40.1827 89.0099 41.5894 89.5386 42.8771C90.1721 44.1069 91.7826 44.9396 92.9885 44.2521C93.9655 43.6944 94.2556 42.434 94.4235 41.3187C94.9043 38.0951 95.1257 34.8333 95.6294 31.6097L89.0425 38.8055Z" fill="#263238"/>
<path d="M114.658 21.916C114.658 21.916 114.215 21.8319 113.406 21.809C112.26 21.7882 111.121 21.9959 110.055 22.4201C109.32 22.7041 108.616 23.0652 107.956 23.4972C107.204 24.0067 106.483 24.5602 105.796 25.1549C104.206 26.5075 102.784 28.0462 101.56 29.7382C100.919 30.6396 100.346 31.5715 99.7282 32.4271C99.1456 33.2696 98.4639 34.039 97.6979 34.7187C96.389 35.8362 94.9546 36.7975 93.4237 37.5833C92.1337 38.2708 91.0499 38.7444 90.3019 39.1111L89.4394 39.4778C89.34 39.5282 89.2349 39.5667 89.1265 39.5924C89.2154 39.524 89.3129 39.4675 89.4165 39.4243L90.2561 39.0118C91.0194 38.6451 92.0574 38.141 93.3092 37.4382C94.8068 36.6304 96.2141 35.665 97.5071 34.5583C98.2534 33.8745 98.9169 33.1053 99.484 32.2667C100.087 31.4187 100.652 30.4868 101.301 29.5778C102.54 27.8769 103.986 26.3373 105.605 24.9944C106.303 24.3973 107.038 23.8437 107.804 23.3368C108.484 22.9059 109.208 22.5475 109.964 22.2674C111.054 21.8534 112.218 21.6713 113.383 21.7326C113.699 21.7544 114.012 21.7978 114.322 21.8625C114.436 21.8669 114.548 21.8848 114.658 21.916Z" fill="#455A64"/>
<path d="M88.8973 35.6736C88.7653 35.7963 88.6161 35.8993 88.4546 35.9791L87.1723 36.743L86.7372 36.9951C86.5692 37.0946 86.3818 37.1571 86.1877 37.1785C86.067 37.1903 85.9459 37.1606 85.8442 37.0944C85.7897 37.0577 85.7442 37.009 85.7111 36.9521C85.6781 36.8952 85.6583 36.8316 85.6534 36.766C85.6674 36.5321 85.7526 36.3082 85.8977 36.1243C86.348 35.3604 86.8517 34.5965 87.3784 33.741L87.5845 33.9243C87.0938 34.2869 86.5436 34.5609 85.9587 34.734C85.3709 34.9135 84.7556 34.9859 84.1421 34.9479C83.9863 34.948 83.8315 34.9222 83.6842 34.8715C83.598 34.8464 83.5185 34.8025 83.4512 34.7431C83.3839 34.6837 83.3306 34.6102 83.2949 34.5278C83.2651 34.4422 83.2571 34.3506 83.2718 34.2612C83.2865 34.1718 83.3233 34.0875 83.3789 34.016C83.4658 33.9029 83.5629 33.7981 83.6689 33.7028C84.334 33.0553 84.9114 32.3234 85.3863 31.5257C85.8063 30.7887 86.1735 30.0229 86.4854 29.234C86.4642 29.4671 86.4103 29.6959 86.3251 29.9139C86.1311 30.5216 85.8753 31.1077 85.5618 31.6632C85.1054 32.5056 84.5295 33.2775 83.8521 33.9548C83.6613 34.1382 83.4781 34.3444 83.5468 34.5048C83.6155 34.6653 83.8979 34.7417 84.1574 34.7417C85.3228 34.8017 86.4734 34.4592 87.4165 33.7715L88.0195 33.3285L87.615 33.9548L86.0885 36.3229C85.9709 36.4644 85.8967 36.6368 85.8748 36.8194C85.8748 36.9569 86.0045 37.041 86.1648 37.0333C86.4903 36.9654 86.8007 36.8385 87.0807 36.659C87.5997 36.384 88.0424 36.1625 88.4012 35.9791C88.552 35.8553 88.7189 35.7526 88.8973 35.6736Z" fill="#9A9A9A"/>
<path d="M107.956 50.6993C107.956 50.5007 106.651 50.5618 105.666 49.4847C104.682 48.4076 104.758 47.0097 104.575 47.0021C104.392 46.9944 104.338 47.3306 104.346 47.9187C104.376 48.688 104.673 49.4228 105.185 49.9965C105.684 50.5421 106.372 50.8757 107.109 50.9285C107.62 50.9514 107.971 50.7833 107.956 50.6993Z" fill="#263238"/>
<path d="M85.5848 268.408L66.9917 285.427L88.0273 308.687C90.1263 306.541 83.6996 290.469 83.6996 290.469L95.3165 279.224L85.5848 268.408Z" fill="#DEDEDE"/>
<path d="M78.204 282.364C77.9328 282.202 77.6115 282.146 77.3017 282.207C76.9919 282.267 76.7153 282.44 76.5249 282.692C76.3548 282.957 76.2917 283.276 76.3484 283.585C76.4051 283.895 76.5774 284.171 76.8302 284.358C77.1183 284.527 77.4583 284.584 77.786 284.52C78.1137 284.455 78.4063 284.272 78.6086 284.006C78.7578 283.711 78.788 283.369 78.6928 283.052C78.5976 282.735 78.3844 282.467 78.0972 282.303" fill="white"/>
<path d="M66.9917 285.427L68.938 283.632L88.3097 306.77C88.3097 306.77 88.7906 308.214 87.951 308.749L66.9917 285.427Z" fill="white"/>
<path d="M84.1576 290.736C84.0431 290.835 83.4783 290.316 82.6311 290.087C81.7839 289.858 81.013 289.995 80.9672 289.85C80.9214 289.705 81.7304 289.277 82.7685 289.575C83.8065 289.873 84.2874 290.667 84.1576 290.736Z" fill="white"/>
<path d="M85.3559 294.097C85.2719 294.227 84.5926 293.906 83.8294 293.96C83.0661 294.013 82.3944 294.357 82.3028 294.235C82.2112 294.112 82.7303 293.471 83.7607 293.433C84.7911 293.394 85.4856 293.99 85.3559 294.097Z" fill="white"/>
<path d="M83.6919 298.123C83.5468 298.024 83.8827 297.405 84.8826 297.099C85.8824 296.794 86.5007 297.099 86.4473 297.267C86.3938 297.435 85.7679 297.374 85.0428 297.603C84.3177 297.833 83.8064 298.222 83.6919 298.123Z" fill="white"/>
<path d="M86.7147 288.055C86.5696 288.101 86.2491 287.436 85.6308 286.833C85.0126 286.229 84.3485 285.916 84.3943 285.763C84.4401 285.61 85.2797 285.763 86.0048 286.451C86.7299 287.138 86.852 288.024 86.7147 288.055Z" fill="white"/>
<path d="M88.9664 284.999C88.9206 285.045 88.4474 284.656 87.9207 283.831C87.6038 283.355 87.3474 282.842 87.1575 282.303C87.0466 281.979 86.9624 281.647 86.9056 281.31C86.8573 281.115 86.8418 280.914 86.8598 280.714C86.8732 280.567 86.9353 280.428 87.0362 280.32C87.1371 280.212 87.2711 280.141 87.417 280.118C87.5475 280.1 87.6803 280.115 87.8041 280.16C87.9278 280.205 88.0385 280.28 88.1268 280.378C88.2607 280.524 88.3737 280.689 88.4626 280.867C88.6236 281.171 88.7589 281.487 88.8672 281.814C89.0462 282.369 89.1364 282.949 89.1343 283.533C89.1846 284.063 89.0728 284.595 88.8137 285.06C88.7298 285.06 88.8137 284.465 88.7603 283.533C88.709 282.995 88.5884 282.466 88.4016 281.959C88.2932 281.663 88.1604 281.377 88.0047 281.103C87.8444 280.806 87.6612 280.592 87.4933 280.63C87.3254 280.668 87.4093 280.63 87.3864 280.767C87.3692 280.914 87.3692 281.063 87.3864 281.21C87.4365 281.525 87.5053 281.836 87.5925 282.142C87.7425 282.668 87.9392 283.179 88.1802 283.67C88.6687 284.48 89.0351 284.931 88.9664 284.999Z" fill="white"/>
<path d="M88.6762 284.999C88.6228 284.999 88.8212 284.381 89.5158 283.678C89.9287 283.266 90.4088 282.927 90.9355 282.677C91.249 282.531 91.5763 282.415 91.9124 282.333C92.123 282.257 92.3496 282.237 92.5703 282.274C92.7909 282.312 92.9982 282.406 93.1718 282.547C93.257 282.653 93.3125 282.779 93.3327 282.914C93.3528 283.048 93.3368 283.185 93.2863 283.311C93.2085 283.496 93.1001 283.666 92.9658 283.815C92.7495 284.09 92.492 284.33 92.2025 284.526C91.7072 284.857 91.1386 285.061 90.5462 285.122C89.5387 285.213 88.9739 284.862 89.0197 284.816C89.5294 284.822 90.039 284.799 90.5462 284.747C91.0628 284.648 91.5506 284.434 91.9735 284.121C92.2195 283.943 92.4403 283.732 92.6299 283.494C92.8436 283.235 92.9581 282.96 92.8513 282.891C92.7358 282.827 92.6079 282.788 92.4763 282.778C92.3446 282.767 92.2122 282.785 92.088 282.83C91.7829 282.899 91.4841 282.993 91.195 283.112C90.7056 283.322 90.2482 283.6 89.8364 283.937C89.0578 284.541 88.7449 285.045 88.6762 284.999Z" fill="white"/>
<path d="M81.0972 284.808L81.3338 310.017L112.681 309.887C112.483 306.892 96.2403 300.942 96.2403 300.942L96.7517 284.778L81.0972 284.808Z" fill="#DEDEDE"/>
<path d="M86.5388 299.628C86.2381 299.722 85.9823 299.923 85.8204 300.194C85.6585 300.464 85.6018 300.785 85.6611 301.094C85.7423 301.399 85.9372 301.661 86.2056 301.826C86.4741 301.991 86.7956 302.046 87.1037 301.981C87.4168 301.882 87.6833 301.672 87.8533 301.391C88.0232 301.11 88.0851 300.776 88.0272 300.453C87.9117 300.142 87.6797 299.888 87.3805 299.746C87.0813 299.603 86.7383 299.583 86.4244 299.689" fill="white"/>
<path d="M81.3262 310.078V307.381L111.475 308.405C111.475 308.405 112.872 309.016 112.712 309.994L81.3262 310.078Z" fill="white"/>
<path d="M96.7438 300.789C96.7438 300.942 95.9805 301.01 95.2173 301.507C94.454 302.003 94.0724 302.653 93.9273 302.592C93.7823 302.531 94.0113 301.644 94.9272 301.064C95.8431 300.483 96.782 300.644 96.7438 300.789Z" fill="#263238"/>
<path d="M100.041 302.133C100.079 302.278 99.4151 302.546 98.8961 303.195C98.3771 303.844 98.2321 304.532 98.0794 304.524C97.9268 304.517 97.8275 303.653 98.4839 302.859C99.1403 302.065 100.033 301.988 100.041 302.133Z" fill="#263238"/>
<path d="M101.926 306.067C101.781 306.067 101.568 305.303 101.926 304.494C102.285 303.684 103.033 303.317 103.094 303.44C103.155 303.562 102.72 304.02 102.415 304.715C102.109 305.41 102.079 306.052 101.926 306.067Z" fill="#263238"/>
<path d="M96.4539 297.092C96.3928 297.229 95.6906 297.023 94.8205 297.092C93.9504 297.16 93.2939 297.428 93.2023 297.298C93.1108 297.168 93.7672 296.618 94.7899 296.534C95.8127 296.45 96.5302 296.969 96.4539 297.092Z" fill="#263238"/>
<path d="M104.461 154.973L100.673 202.735L100.672 202.744V202.753L96.7725 295.203L79.9697 298.195L79.0967 294.242L79.0918 294.219L79.0859 294.199L78.8447 293.408C76.4053 285.087 75.4396 272.085 75.0938 260.975C74.9156 255.252 74.9024 250.049 74.9336 246.277C74.9492 244.391 74.9762 242.862 74.999 241.806C75.0104 241.278 75.0207 240.868 75.0283 240.59C75.0321 240.451 75.035 240.345 75.0371 240.274C75.0382 240.239 75.0395 240.212 75.04 240.194V240.168L75.042 240.127L75.0361 240.086V240.085C75.0359 240.083 75.0355 240.081 75.0352 240.078C75.0344 240.072 75.0337 240.063 75.0322 240.052C75.0293 240.03 75.0244 239.996 75.0186 239.951C75.0068 239.861 74.9895 239.727 74.9668 239.553C74.9213 239.205 74.8548 238.693 74.7695 238.04C74.5989 236.732 74.3542 234.857 74.0576 232.586C73.4643 228.042 72.6636 221.911 71.834 215.564C71.0045 209.217 70.1453 202.654 69.4365 197.245L67.9375 185.849C67.4883 182.483 68.2702 177.162 69.1885 172.622C69.6449 170.365 70.1306 168.322 70.502 166.843C70.6876 166.104 70.8446 165.506 70.9551 165.093C71.0103 164.887 71.0542 164.727 71.084 164.619C71.0988 164.565 71.1105 164.524 71.1182 164.497C71.122 164.483 71.125 164.472 71.127 164.465L71.1289 164.458L71.1299 164.456C71.1362 164.437 71.1459 164.41 71.1582 164.375C71.1829 164.303 71.2194 164.198 71.2666 164.063C71.3612 163.792 71.499 163.399 71.6709 162.914C72.0146 161.943 72.495 160.603 73.043 159.122C73.7106 157.317 74.4758 155.313 75.2129 153.517L104.461 154.973Z" stroke="black"/>
<path d="M123.905 142.012L125.259 153.797V153.798C125.259 153.8 125.26 153.802 125.26 153.806C125.261 153.813 125.262 153.824 125.263 153.838C125.266 153.866 125.272 153.908 125.278 153.964C125.29 154.076 125.308 154.242 125.332 154.458C125.379 154.892 125.45 155.529 125.54 156.344C125.719 157.973 125.975 160.312 126.286 163.15C126.908 168.827 127.747 176.501 128.615 184.491C130.134 198.477 131.743 213.424 132.433 220.326L132.669 222.766C132.774 223.905 132.344 225.757 131.431 228.198C130.527 230.615 129.181 233.531 127.532 236.761C124.235 243.219 119.748 250.892 115.226 258.258C110.705 265.622 106.154 272.67 102.734 277.879C101.024 280.483 99.596 282.627 98.5962 284.119C98.0963 284.865 97.704 285.449 97.436 285.846C97.4219 285.867 97.4074 285.887 97.394 285.906L82.5688 268.382L106.008 224.775L106.09 224.62L106.059 224.448L98.1333 180.816L108.469 141.823L123.905 142.012Z" stroke="black"/>
<path d="M91.2695 63.5688C91.6925 64.8711 92.267 66.66 92.874 68.606C94.015 72.2638 95.2618 76.4506 95.8359 79.0161L95.9414 79.5073C96.8457 83.9064 98.5581 95.6241 99.7852 105.123L100.277 109.03C100.877 113.924 100.534 121.006 99.8174 127.67C99.1459 133.916 98.1528 139.743 97.3262 142.993L97.1631 143.608C96.7279 145.179 96.0393 148.016 95.1855 151.404C94.3299 154.799 93.3046 158.763 92.1875 162.614C91.0696 166.467 89.8633 170.194 88.6504 173.118C88.0438 174.58 87.4411 175.829 86.8525 176.788C86.3291 177.64 85.8449 178.217 85.417 178.528L85.2373 178.644C84.735 178.932 84.0133 179.135 83.0977 179.251C82.1885 179.367 81.1225 179.393 79.9561 179.349C77.6231 179.261 74.9323 178.895 72.3721 178.443C69.8144 177.992 67.3997 177.457 65.624 177.035C64.7367 176.824 64.0098 176.64 63.5049 176.51C63.3895 176.481 63.2858 176.453 63.1943 176.429L68.3545 156.178C68.94 153.875 69.6828 151.616 70.5771 149.415L79.1709 128.316L79.2285 128.175L79.1973 128.026L68.0059 73.8481L85.6533 67.8794L85.7764 67.8374L85.8633 67.7417L90.8428 62.2642C90.9556 62.6077 91.1009 63.0495 91.2695 63.5688Z" stroke="black"/>
<mask id="path-40-inside-1_130_408" fill="white">
<path d="M67.4268 73.4785C67.4268 73.4785 62.687 79.6812 61.3207 85.6396C59.0309 95.7 50.2839 123.169 50.8029 129.601C51.3219 136.033 85.2949 147.706 85.2949 147.706L86.684 129.8L70.9073 121.458L75.2427 104.584"/>
</mask>
<path d="M61.3207 85.6396L60.346 85.4161L60.3457 85.4176L61.3207 85.6396ZM85.2949 147.706L84.97 148.651L86.1919 149.071L86.2919 147.783L85.2949 147.706ZM86.684 129.8L87.681 129.877L87.7318 129.223L87.1514 128.916L86.684 129.8ZM70.9073 121.458L69.9388 121.209L69.7425 121.974L70.4399 122.342L70.9073 121.458ZM67.4268 73.4785C66.6323 72.8713 66.6322 72.8714 66.632 72.8716C66.632 72.8717 66.6318 72.8719 66.6317 72.8721C66.6314 72.8724 66.6311 72.8729 66.6306 72.8734C66.6298 72.8745 66.6287 72.876 66.6273 72.8778C66.6245 72.8815 66.6205 72.8867 66.6155 72.8934C66.6054 72.9067 66.591 72.9259 66.5723 72.9508C66.5351 73.0006 66.4812 73.0733 66.4127 73.1671C66.2758 73.3548 66.0802 73.6275 65.8419 73.9726C65.3657 74.6624 64.7173 75.6441 64.0251 76.8161C62.6498 79.1447 61.0631 82.2888 60.346 85.4161L61.3207 85.6396L62.2954 85.8631C62.9446 83.032 64.4109 80.0956 65.7472 77.8332C66.4107 76.7097 67.0326 75.7683 67.4878 75.1089C67.7153 74.7794 67.9007 74.521 68.0283 74.3461C68.0921 74.2587 68.1414 74.1923 68.1742 74.1483C68.1906 74.1263 68.203 74.11 68.2109 74.0995C68.2149 74.0942 68.2178 74.0904 68.2195 74.0881C68.2204 74.087 68.221 74.0862 68.2213 74.0857C68.2215 74.0855 68.2216 74.0854 68.2216 74.0854C68.2216 74.0854 68.2215 74.0855 68.2215 74.0854C68.2215 74.0855 68.2214 74.0856 67.4268 73.4785ZM61.3207 85.6396L60.3457 85.4176C59.2063 90.4237 56.4633 99.7467 54.043 108.721C52.8378 113.189 51.7161 117.56 50.9278 121.223C50.1503 124.835 49.6626 127.903 49.8062 129.682L50.8029 129.601L51.7997 129.521C51.6837 128.084 52.0948 125.306 52.883 121.644C53.6602 118.033 54.7711 113.702 55.974 109.242C58.37 100.358 61.1454 90.9159 62.2958 85.8615L61.3207 85.6396ZM50.8029 129.601L49.8062 129.682C49.9023 130.873 50.7292 131.98 51.7433 132.949C52.7953 133.954 54.2324 134.98 55.8883 135.996C59.2061 138.031 63.5518 140.115 67.8447 141.982C72.1451 143.853 76.4254 145.519 79.6281 146.718C81.2301 147.317 82.5641 147.8 83.4981 148.133C83.9652 148.3 84.3323 148.429 84.5831 148.517C84.7085 148.561 84.8048 148.594 84.87 148.617C84.9026 148.628 84.9273 148.637 84.9441 148.642C84.9525 148.645 84.9588 148.647 84.9632 148.649C84.9653 148.65 84.967 148.65 84.9681 148.651C84.9687 148.651 84.9691 148.651 84.9694 148.651C84.9697 148.651 84.97 148.651 85.2949 147.706C85.6198 146.76 85.6198 146.76 85.6196 146.76C85.6193 146.76 85.619 146.76 85.6186 146.759C85.6176 146.759 85.6162 146.759 85.6142 146.758C85.6103 146.757 85.6044 146.754 85.5964 146.752C85.5805 146.746 85.5566 146.738 85.5249 146.727C85.4614 146.705 85.3669 146.672 85.2433 146.629C84.9962 146.543 84.633 146.415 84.1701 146.25C83.2442 145.919 81.92 145.44 80.329 144.845C77.1455 143.653 72.9 142 68.6424 140.148C64.3772 138.293 60.1323 136.253 56.9342 134.291C55.3322 133.308 54.03 132.367 53.1247 131.503C52.1816 130.602 51.8333 129.938 51.7997 129.521L50.8029 129.601ZM85.2949 147.706L86.2919 147.783L87.681 129.877L86.684 129.8L85.687 129.723L84.2979 147.628L85.2949 147.706ZM86.684 129.8L87.1514 128.916L71.3748 120.574L70.9073 121.458L70.4399 122.342L86.2166 130.684L86.684 129.8ZM70.9073 121.458L71.8759 121.707L76.2112 104.833L75.2427 104.584L74.2741 104.335L69.9388 121.209L70.9073 121.458Z" fill="black" mask="url(#path-40-inside-1_130_408)"/>
<path d="M75.2427 104.592C75.2318 104.69 75.2139 104.787 75.1893 104.882C75.1358 105.096 75.0748 105.378 74.9832 105.745L74.1741 109.068C73.4109 111.986 72.3728 116.203 71.0447 121.504L70.976 121.344L86.7985 129.632L86.9054 129.693V129.815C86.4856 135.254 86.0276 141.274 85.5392 147.728V148.003L85.2796 147.912C78.624 145.567 71.4569 142.832 64.2364 139.509C61.8627 138.386 59.5347 137.217 57.3212 135.942C55.1078 134.666 52.9248 133.306 51.3449 131.274C51.151 131.013 50.9871 130.732 50.8564 130.434C50.7865 130.284 50.7377 130.124 50.7114 129.96C50.6629 129.805 50.6397 129.642 50.6427 129.479C50.6149 128.842 50.6277 128.205 50.6808 127.569C50.7877 126.347 51.009 125.163 51.1998 123.987C51.6578 121.649 52.1667 119.375 52.7264 117.165C54.9169 108.335 57.2373 100.49 59.0615 93.8667C59.9927 90.559 60.7636 87.5569 61.42 84.8986C62.0593 82.655 62.9638 80.4958 64.1143 78.4666C64.8296 77.1724 65.6144 75.9177 66.4652 74.7083C66.7552 74.2958 66.9842 73.9903 67.1445 73.784C67.3047 73.5778 67.3963 73.4785 67.3963 73.4785C67.3963 73.4785 67.3276 73.593 67.1826 73.8069C67.0376 74.0208 66.8086 74.3569 66.5415 74.7618C65.9843 75.6097 65.1752 76.8548 64.2517 78.5812C63.1171 80.6134 62.2256 82.7723 61.5955 85.0132C60.9696 87.6562 60.214 90.6812 59.3057 93.9965C57.5197 100.635 55.2299 108.51 53.0622 117.31C52.5228 119.51 52.014 121.777 51.5357 124.109C51.3449 125.278 51.1235 126.462 51.0243 127.653C50.966 128.25 50.9456 128.85 50.9632 129.449C51.0021 130.024 51.2181 130.574 51.5815 131.022C53.0622 132.924 55.2757 134.261 57.4281 135.56C59.5805 136.858 61.9466 137.989 64.2975 139.104C71.4951 142.45 78.6621 145.215 85.2949 147.507L85.0125 147.69C85.5239 141.274 85.9971 135.224 86.4322 129.785L86.5314 129.968L70.7471 121.565L70.6478 121.512V121.405C72.037 116.126 73.1361 111.917 73.8994 109.007C74.281 107.578 74.5787 106.478 74.7847 105.699C74.8916 105.34 74.9679 105.058 75.029 104.851C75.09 104.757 75.1617 104.67 75.2427 104.592Z" fill="#263238"/>
<path d="M149.745 128.234L140.257 141.067C140.064 141.329 139.801 141.53 139.499 141.647C139.196 141.765 138.866 141.794 138.548 141.732L97.5222 133.978C97.2804 133.933 97.0511 133.837 96.8497 133.695C96.6483 133.554 96.4794 133.371 96.3543 133.159C96.2293 132.947 96.151 132.711 96.1247 132.466C96.0983 132.222 96.1246 131.974 96.2017 131.74L100.621 118.105C100.751 117.705 101.022 117.366 101.382 117.151C101.743 116.936 102.17 116.86 102.583 116.936L148.669 125.499C148.957 125.553 149.227 125.68 149.454 125.867C149.68 126.054 149.856 126.295 149.963 126.568C150.071 126.842 150.107 127.138 150.069 127.429C150.031 127.721 149.919 127.998 149.745 128.234Z" fill="#060606"/>
<path d="M61.3438 122.589C61.7139 122.113 62.186 121.727 62.7253 121.458C63.9766 120.731 65.3945 120.339 66.8415 120.322C68.2885 120.305 69.7154 120.662 70.9838 121.359C71.5298 121.606 72.0126 121.975 72.3958 122.436C72.35 122.497 71.8157 122.085 70.8693 121.672C69.6148 121.083 68.2431 120.787 66.8575 120.805C65.472 120.824 64.1087 121.157 62.8703 121.779C61.9162 122.222 61.3895 122.642 61.3438 122.589Z" fill="#263238"/>
<g opacity="0.3">
<path d="M71 146.797L87.2118 152.756L88.8986 146.026L96.5694 147.584L97.6074 143.688L85.5631 142L85.441 147.584L72.8471 142.825L71 146.797Z" fill="black"/>
</g>
<path d="M96.7148 125.741V125.742L97.6504 125.882L96.4609 129.41L96.1992 130.186L97.0078 130.066H97.0088L97.0098 130.065C97.0112 130.065 97.0137 130.064 97.0166 130.064C97.0223 130.063 97.0308 130.062 97.042 130.06C97.0651 130.057 97.1003 130.052 97.1455 130.045C97.2359 130.032 97.369 130.014 97.5391 129.991C97.88 129.944 98.3699 129.88 98.9629 129.81C100.149 129.669 101.747 129.502 103.395 129.397C105.046 129.292 106.732 129.25 108.102 129.357C108.787 129.41 109.375 129.499 109.833 129.628C110.248 129.745 110.499 129.88 110.631 130.002L110.681 130.054C111.056 130.499 111.019 130.707 110.992 130.778C110.946 130.897 110.774 131.071 110.348 131.248C109.726 131.506 108.857 131.655 108.06 131.764L107.297 131.863C106.364 131.982 104.403 132.291 102.685 132.569C101.823 132.708 101.02 132.84 100.432 132.937C100.138 132.985 99.8972 133.024 99.7305 133.052C99.6472 133.066 99.5823 133.077 99.5381 133.084C99.516 133.088 99.4987 133.091 99.4873 133.093C99.4818 133.094 99.4774 133.095 99.4746 133.095C99.4734 133.095 99.4724 133.095 99.4717 133.095L99.4707 133.096L99.6064 134.086H99.6074L99.6094 134.085C99.6111 134.085 99.6137 134.085 99.6172 134.084C99.6245 134.084 99.6359 134.083 99.6504 134.081C99.6794 134.078 99.7227 134.074 99.7793 134.068C99.8925 134.056 100.059 134.038 100.271 134.017C100.697 133.974 101.306 133.914 102.04 133.848C103.509 133.716 105.477 133.558 107.477 133.452C109.48 133.347 111.502 133.294 113.084 133.372C113.877 133.412 114.541 133.483 115.029 133.59C115.274 133.644 115.457 133.704 115.585 133.763C115.653 133.795 115.693 133.82 115.716 133.837L115.74 133.858C115.956 134.195 115.936 134.381 115.905 134.473C115.867 134.588 115.757 134.717 115.547 134.843C115.342 134.966 115.097 135.054 114.891 135.112C114.79 135.14 114.704 135.159 114.645 135.171C114.615 135.177 114.592 135.182 114.577 135.185C114.57 135.186 114.565 135.186 114.562 135.187L114.559 135.188L114.502 135.197L114.448 135.218L104.195 139.326L103.013 139.784L102.882 139.834L102.797 139.945L101.669 141.41C101.64 141.429 101.602 141.456 101.555 141.488C101.439 141.566 101.271 141.677 101.065 141.81C100.654 142.075 100.094 142.424 99.4951 142.759C98.8936 143.096 98.2662 143.413 97.7188 143.62C97.4449 143.724 97.2038 143.796 97.0039 143.831C96.8483 143.859 96.7414 143.861 96.6738 143.853L96.6191 143.842C95.9334 143.639 93.1841 143.082 90.6504 142.584C89.3738 142.333 88.1378 142.095 87.2217 141.919C86.7817 141.835 86.4153 141.765 86.1533 141.715L87.0791 131.485C87.1682 131.41 87.2929 131.307 87.4424 131.182C87.7605 130.916 88.1947 130.555 88.6602 130.175C89.487 129.5 90.3799 128.792 90.9043 128.433L91.1055 128.301C91.6225 127.984 92.6997 127.284 93.8467 126.687C94.4194 126.389 94.9955 126.123 95.5127 125.948C96.044 125.767 96.4512 125.702 96.7148 125.741Z" stroke="black"/>
<path d="M98.3461 146.5L107.5 141L116 141L120 139.5L121.013 141.759L101.846 179L100.346 195.5L91.3461 172.5L98.3461 146.5Z" fill="#C4C5F9"/>
<path d="M75.3408 148L80.8956 150.268L70.5 177.5L68.5 177.5L64.5 176L75.3408 148Z" fill="#C9CCFA"/>
<path d="M92.4569 237.284L98.5 237L96.5 295L80.5 297.5L78.5 290.5L77 283L75.9999 268.5L92.4569 237.284Z" fill="#C8CEFB"/>
<path d="M92.5 65L108 61C108 61 115.734 77.0237 109 81C105.133 83.2835 97.5 81 97.5 81L92.5 65Z" fill="#C3C1F8"/>
<path d="M112.733 67.2139L112.838 67.3447L113.001 67.3857L123.714 70.0967C123.732 70.1864 123.753 70.2947 123.777 70.4199C123.857 70.8251 123.971 71.4084 124.106 72.1211C124.378 73.5469 124.74 75.4896 125.103 77.5557C125.831 81.7119 126.547 86.2984 126.547 88.2373C126.547 90.2184 126.137 102.257 125.727 114.08C125.317 125.883 124.905 137.477 124.905 138.529C124.905 138.71 124.945 138.985 125.002 139.303C125.062 139.634 125.149 140.052 125.258 140.542C125.475 141.524 125.785 142.811 126.152 144.297C126.888 147.268 127.862 151.056 128.812 154.824C129.764 158.597 130.692 162.352 131.339 165.271C131.663 166.732 131.914 167.976 132.063 168.904C132.138 169.369 132.185 169.746 132.204 170.026C132.214 170.167 132.216 170.275 132.212 170.354L132.206 170.433C132.175 170.511 132.069 170.65 131.805 170.829C131.552 171.001 131.205 171.176 130.784 171.348C129.943 171.691 128.867 171.999 127.795 172.257C126.726 172.514 125.677 172.718 124.894 172.857C124.583 172.913 124.314 172.956 124.104 172.99C124.084 172.837 124.062 172.652 124.035 172.438C123.95 171.753 123.829 170.765 123.684 169.555C123.392 167.133 123.004 163.818 122.615 160.244C121.837 153.083 121.064 144.92 121.064 140.8C121.064 132.762 120.737 113.248 119.141 102.833L118.982 101.854C118.116 96.7939 115.988 88.012 114.082 80.5117C113.128 76.7578 112.229 73.3186 111.567 70.8184C111.237 69.5683 110.966 68.5527 110.777 67.8496C110.683 67.4981 110.61 67.2247 110.56 67.0391C110.535 66.9464 110.515 66.8758 110.502 66.8281C110.501 66.8259 110.501 66.8234 110.5 66.8213L110.505 64.4238L112.733 67.2139Z" stroke="black"/>
<rect x="122" y="141" width="2.72382" height="31.2409" transform="rotate(-8.59948 122 141)" fill="#C6C5F9"/>
<path d="M121 73.4257L123.222 71L124.889 76.8218L126 87.4951L124.5 121L121.5 120.5L121 73.4257Z" fill="#C2C2F8"/>
<path d="M97 145.5L109 146.5L121 145.5" stroke="black"/>
<g filter="url(#filter1_ddf_130_408)">
<circle cx="170" cy="24" r="10" fill="#6F3CFF"/>
</g>
<defs>
<filter id="filter0_g_130_408" x="14.1353" y="144.504" width="83.0034" height="107.668" filterUnits="userSpaceOnUse" color-interpolation-filters="sRGB">
<feFlood flood-opacity="0" result="BackgroundImageFix"/>
<feBlend mode="normal" in="SourceGraphic" in2="BackgroundImageFix" result="shape"/>
<feTurbulence type="fractalNoise" baseFrequency="2 2" numOctaves="3" seed="8547" />
<feDisplacementMap in="shape" scale="8" xChannelSelector="R" yChannelSelector="G" result="displacedImage" width="100%" height="100%" />
<feMerge result="effect1_texture_130_408">
<feMergeNode in="displacedImage"/>
</feMerge>
</filter>
<filter id="filter1_ddf_130_408" x="156" y="10" width="28" height="32" filterUnits="userSpaceOnUse" color-interpolation-filters="sRGB">
<feFlood flood-opacity="0" result="BackgroundImageFix"/>
<feColorMatrix in="SourceAlpha" type="matrix" values="0 0 0 0 0 0 0 0 0 0 0 0 0 0 0 0 0 0 127 0" result="hardAlpha"/>
<feOffset dy="4"/>
<feGaussianBlur stdDeviation="2"/>
<feComposite in2="hardAlpha" operator="out"/>
<feColorMatrix type="matrix" values="0 0 0 0 0 0 0 0 0 0 0 0 0 0 0 0 0 0 0.25 0"/>
<feBlend mode="normal" in2="BackgroundImageFix" result="effect1_dropShadow_130_408"/>
<feColorMatrix in="SourceAlpha" type="matrix" values="0 0 0 0 0 0 0 0 0 0 0 0 0 0 0 0 0 0 127 0" result="hardAlpha"/>
<feOffset dy="4"/>
<feGaussianBlur stdDeviation="2"/>
<feComposite in2="hardAlpha" operator="out"/>
<feColorMatrix type="matrix" values="0 0 0 0 0 0 0 0 0 0 0 0 0 0 0 0 0 0 0.25 0"/>
<feBlend mode="normal" in2="effect1_dropShadow_130_408" result="effect2_dropShadow_130_408"/>
<feBlend mode="normal" in="SourceGraphic" in2="effect2_dropShadow_130_408" result="shape"/>
<feGaussianBlur stdDeviation="2" result="effect3_foregroundBlur_130_408"/>
</filter>
</defs>
</svg>
