<svg width="15" height="15" viewBox="0 0 15 15" fill="none" xmlns="http://www.w3.org/2000/svg">
<path d="M5.625 4.41858e-07C5.04314 -0.000348111 4.47551 0.205524 4.00033 0.589243C3.52515 0.972962 3.16583 1.51564 2.97188 2.14248H0V4.28496H2.97188C3.16556 4.91221 3.52476 5.45537 3.99994 5.83956C4.47512 6.22376 5.04289 6.43007 5.625 6.43007C6.20711 6.43007 6.77488 6.22376 7.25006 5.83956C7.72524 5.45537 8.08444 4.91221 8.27812 4.28496H15V2.14248H8.27812C8.08417 1.51564 7.72485 0.972962 7.24967 0.589243C6.77449 0.205524 6.20686 -0.000348111 5.625 4.41858e-07ZM9.375 8.56993C8.79314 8.56958 8.22551 8.77545 7.75033 9.15917C7.27515 9.54289 6.91583 10.0856 6.72188 10.7124H0V12.8549H6.72188C6.91556 13.4821 7.27476 14.0253 7.74994 14.4095C8.22512 14.7937 8.79289 15 9.375 15C9.95711 15 10.5249 14.7937 11.0001 14.4095C11.4752 14.0253 11.8344 13.4821 12.0281 12.8549H15V10.7124H12.0281C11.8342 10.0856 11.4748 9.54289 10.9997 9.15917C10.5245 8.77545 9.95686 8.56958 9.375 8.56993Z" fill="black"/>
</svg>
