<svg width="23" height="23" viewBox="0 0 23 23" fill="none" xmlns="http://www.w3.org/2000/svg">
<path d="M20.2879 14.7583L14.6242 5.31875C13.8767 4.07292 12.7458 3.36375 11.5 3.36375C10.2542 3.36375 9.12334 4.07292 8.37584 5.30917L2.71209 14.7583C2.29042 15.4579 2.07959 16.1863 2.07959 16.8763C2.07959 17.4225 2.21376 17.9592 2.48209 18.4288C3.09542 19.5021 4.28376 20.125 5.75001 20.125H17.25C18.7163 20.125 19.9046 19.5021 20.5179 18.4288C20.7863 17.9592 20.9204 17.4513 20.9204 16.9146C20.93 16.2054 20.7192 15.4675 20.2879 14.7583ZM11.5 8.09792C12.3146 8.09792 12.9854 8.76875 12.9854 9.58334C12.9854 10.3979 12.3242 11.0688 11.5 11.0688C10.6854 11.0688 10.0146 10.3979 10.0146 9.58334C10.0146 8.75917 10.6758 8.09792 11.5 8.09792ZM13.1196 16.2054C13.0908 16.2438 12.3529 17.0871 11.1358 17.0871H10.9921C10.5033 17.0583 10.1008 16.8475 9.86126 16.4833C9.56417 16.0329 9.51626 15.4196 9.74626 14.7392L10.1392 13.57C10.3596 12.9183 10.1488 12.8129 10.0338 12.7554L9.89959 12.7363C9.66001 12.7363 9.32459 12.88 9.21917 12.9375C9.12334 12.9854 8.99876 12.9663 8.92209 12.8704C8.85501 12.7746 8.85501 12.65 8.93167 12.5638C8.96042 12.5254 9.76542 11.615 11.0592 11.6917C11.5479 11.7204 11.9504 11.9313 12.19 12.2954C12.4967 12.7458 12.535 13.3592 12.305 14.0492L11.9121 15.2183C11.6917 15.87 11.9025 15.9754 12.0175 16.0329L12.1517 16.0521C12.3913 16.0521 12.7267 15.9083 12.8321 15.8604C12.9375 15.8029 13.0525 15.8317 13.1292 15.9275C13.1963 15.9946 13.1963 16.1192 13.1196 16.2054Z" fill="#D04545"/>
</svg>
